Patient4_TMGait_0pt6_02_right_42_EMG.mot
version=1
nRows=30
nColumns=33
inDegrees=no
endheader
time	1LAddLong	2LGlutMax	3LGlutMed	4LIliopsoas	5LSemiMemb	6LBicFemLong	7LRecFem	8LVastMed	9LVastLat	10LGasMed	11LTibAnt	12lTibPost	13LPeroneusLong	14LSol	15LExtDigLong	16LFlexDigLong	17RAddLong	18RGlutMax	19RGlutMed	20RIliopsoas	21RSemiMemb	22RBicFemLong	23RRecFem	24RVastMed	25RVastLat	26RGasMed	27RTibAnt	28RTibPost	29RPeroneusLong	30RSol	31RExtDigLong	32RFlexDigLong
51.55	-0.018463	0.095978	-0.010071	0.00061	-0.009003	0.067749	0.19592	0	-0.26886	-0.003052	-0.018158	-0.006104	0.001984	-0.053558	0.029144	-0.003204	0.012207	-0.006561	-0.37338	0.045471	0.038605	-0.092468	-0.48172	-0.045166	-0.030365	-0.032043	-0.11887	-0.013428	0.21912	0.10986	-0.006561	-0.007935
51.551	-0.028992	0.068359	-0.061798	0.013275	-0.09613	0.24536	0.24506	0.019379	-0.39917	-0.001526	-0.017242	-0.007172	0.014954	-0.088043	0.044403	0.005035	0.002747	0.00885	-0.06134	0.023041	0.00946	-0.14023	-0.45654	0.00946	-0.027618	-0.047302	-0.063782	-0.001831	0.18143	0.22568	-0.008545	-0.017548
51.552	-0.017548	0.080414	-0.098267	0.023651	-0.10788	0.42282	0.28381	0.004272	-0.48248	0.00412	-0.0177	-0.011444	0.004425	-0.045776	0.13184	0.006256	0.007935	0.00824	-0.086365	-0.02243	0.060883	-0.065918	-0.47562	0.013275	-0.037537	-0.045471	-0.053864	0.009766	0.11948	0.62607	-0.003052	-0.012817
51.553	-0.000763	0.04837	-0.099335	0.014496	0.038452	0.21591	0.27161	-0.00351	-0.51193	0.009613	-0.050659	-0.000458	-0.014038	-0.008545	0.1004	-0.001526	0.000458	0.048065	-0.17181	-0.028076	0.12665	0.084381	-0.45212	0.050354	-0.010223	-0.03418	-0.14252	-0.008392	0.16617	0.68619	-0.003967	-0.017242
51.554	0.012665	0.025482	-0.0914	0.005798	0.088043	0.072479	0.23422	0.001831	-0.45487	0.006104	-0.00473	-0.007019	-0.041656	0.014496	0.073547	-0.006561	0.039215	-0.03479	-0.11414	0.006409	0.053406	0.095978	-0.42389	-0.019379	-0.025635	-0.028076	-0.14755	-0.020599	0.11932	0.38269	-0.004272	-0.015411
51.555	0.015259	-0.005493	-0.10513	0.005646	0.040741	0.1091	0.1152	0.009003	-0.31754	0.006409	0.02655	-0.012665	-0.058441	0.024261	0.087433	0.005035	0.050049	-0.093079	-0.103	0.017242	-0.052948	0.075226	-0.43304	-0.064392	-0.050507	-0.014038	-0.094299	0.034027	0.063019	0.22614	-0.001068	-0.009613
51.556	0.005341	0.034485	-0.11719	-0.001068	0.041199	0.053558	0.036469	0.019073	-0.22858	0.007629	-0.046844	-0.002289	-0.046082	0.056915	0.40649	-0.001984	0.031281	-0.12878	-0.17899	0.002441	-0.005035	0.061493	-0.41168	-0.027313	-0.03479	-0.010529	-0.023346	0.005798	0.071564	0.13794	-0.005493	-0.010986
51.557	0.001831	0.018463	-0.061035	-0.01709	0.04776	0.0354	-0.070648	0.027313	-0.14648	-0.019379	-0.04364	-0.002747	0.02655	0.083771	0.81467	0.008698	0.012512	-0.082855	-0.055237	-0.025787	0.11993	-0.041809	-0.4187	-0.007629	-0.050049	0.000458	0.20218	-0.002747	0.08316	-0.18875	-0.002594	-0.02533
51.558	-0.007019	-0.001373	-0.11902	-0.006866	0.014038	0.037231	-0.045013	0.031586	-0.097656	-0.029449	0.089874	-0.005951	0.079498	0.079956	0.17471	0.021515	-0.014191	-0.12833	-0.093079	-0.028687	0.14786	0.033264	-0.46845	0.031586	-0.045471	0.006409	0.089111	-0.001526	0.069275	-0.36667	0.000305	-0.02594
51.559	-0.018463	-0.023804	-0.15701	-0.010223	-0.066528	-0.086823	-0.11795	0.031433	-0.033875	-0.033112	0.1088	-0.00412	0.09613	0.081329	-0.31448	0.00885	-0.023804	-0.11017	-0.076904	-0.003967	0.087738	0.00351	-0.47928	0.061798	-0.027161	0.011292	0.1712	-0.006714	0.006714	-0.2269	-0.001221	-0.01709
51.56	-0.031128	-0.059052	-0.16342	-0.006714	-0.13565	-0.21133	-0.17151	0.020599	0.04776	-0.034637	0.069733	-0.009766	0.078278	0.064392	-0.34561	-0.000305	-0.019226	-0.13077	-0.075531	0.037842	0.096436	-0.050507	-0.4895	0.056915	-0.023804	0.015259	0.14481	-0.000153	-0.007935	-0.099335	0.000916	-0.013733
51.561	-0.025177	-0.041199	-0.10498	0.005798	-0.21606	-0.16892	-0.24551	-0.015564	0.13001	-0.005035	0.059967	0.00351	0.04425	0.058594	-0.50827	-0.014496	0.003052	-0.11566	-0.082092	0.054016	0.17151	-0.024872	-0.49484	0.079956	-0.031586	0.016785	0.054779	-0.004425	-0.007629	-0.17777	0.000763	-0.014954
51.562	-0.014496	-0.03418	-0.040131	0.007324	-0.23819	-0.049744	-0.12466	-0.029907	0.1506	-0.006409	0.11215	-0.005646	0.030518	0.006866	-0.47424	-0.000763	-0.000458	-0.17288	-0.054474	0.006714	0.28442	0.062561	-0.49027	0.088654	-0.031586	0.020294	-0.1001	-0.006714	0.055237	-0.22446	-0.001221	-0.014496
51.563	0.005951	-0.070496	0.007782	0.008087	-0.025787	0.005188	0.1294	-0.046082	0.18326	-0.010223	0.1326	-0.000458	0.026245	-0.041351	-0.005646	0.004578	0.025177	-0.19012	0.036926	-0.025482	0.35294	-0.015259	-0.47089	0.031433	-0.033569	0.012512	-0.42648	-0.00412	0.047455	-0.17075	0.001221	-0.015106
51.564	0.00824	-0.067596	-0.018311	0.001984	0.067139	-0.031586	0.29663	-0.011902	0.20905	-0.011597	0.13992	-0.003815	0.038147	0.015717	-0.21118	-0.002289	0.052795	-0.17822	0.046844	0.027618	0.33966	-0.27374	-0.44266	-0.070343	-0.035248	0.001221	-0.32044	-0.007324	0.10605	-0.13626	-0.001373	-0.008545
51.565	0.009308	-0.026093	0.00061	0.007935	0.14999	-0.022888	0.36789	-0.015259	0.22369	-0.015869	-0.078125	-0.001373	0.059967	0.080261	0.11215	-0.005951	0.013123	-0.18936	0.012054	0.088654	0.34164	-0.49911	-0.47089	-0.029449	-0.032501	-0.000458	-0.034485	0.002594	0.2005	-0.11475	0	-0.019226
51.566	0.015106	-0.10742	0.015106	-0.001068	0.21271	-0.079041	0.26535	-0.028534	0.16724	-0.004883	-0.3978	0.001984	0.030518	0.043945	-0.10315	-0.003357	-0.035553	-0.18143	-0.022278	0.022125	0.38605	-0.49042	-0.50644	-0.015411	-0.035858	0.009613	0.03479	-0.006409	0.21454	-0.11612	0.006256	-0.013428
51.567	0.018463	-0.074921	0.075989	0.010681	0.17532	-0.12405	0.15076	-0.018005	0.10819	0.014648	-0.19943	0.003967	-0.042419	-0.004425	-0.19501	-0.001221	-0.03479	-0.1358	0.028229	0.000458	0.35187	-0.40344	-0.51407	-0.024719	-0.043793	0.006866	0.1387	-0.007782	-0.031281	-0.1181	-0.006409	-0.011292
51.568	0.022736	-0.022888	0.13825	0.004272	0.093231	-0.052338	0.093536	-0.007172	0.040894	0.026855	-0.11108	0.004425	-0.068359	0.007019	0.058289	-0.001373	-0.058441	-0.16388	0.037537	-0.055389	0.14236	-0.21027	-0.55435	0.039215	-0.019836	0.01297	0.1506	-0.005493	-0.18555	-0.12909	-0.00351	-0.016479
51.569	0.025177	-0.033722	0.13825	-0.00946	0.023804	-0.12497	0.14236	0.008392	0.019226	0.024261	-0.078278	0.003204	-0.062256	0.038452	0.066376	0.005341	-0.097809	-0.18784	-0.018921	-0.029755	0.13336	-0.19714	-0.54245	0.044861	-0.007324	0.033722	0.091858	-0.007172	-0.31693	-0.1239	-0.00412	-0.025177
51.57	0.000305	-0.052032	0.11154	-0.015106	-0.036011	0.081787	0.11932	0.018463	0.05188	-0.000763	-0.020599	0.001221	0.011902	0.046844	-0.011444	0.015869	-0.12192	-0.20172	-0.007935	-0.023804	0.093842	-0.17059	-0.52765	0.041046	-0.016174	0.045319	0.085754	-0.003662	-0.54062	-0.11032	-0.003662	-0.023804
51.571	-0.013733	-0.056915	-0.005035	0.005493	-0.023956	0.044708	0.056152	0.026398	0.10254	0	-0.006714	0.006561	0.048218	0.062256	-0.13382	0.019684	-0.10178	-0.17456	0.063171	0.050354	0.15335	0.015411	-0.51849	0.021667	-0.018158	0.0354	0.097961	0.000458	-0.63294	-0.12894	-0.002899	-0.031433
51.572	-0.003662	-0.11993	-0.12177	0.001984	0.040741	-0.18997	0.055542	0.015869	0.12039	0.019836	-0.012512	0.006866	0.009155	0.027618	-0.15503	0.016479	-0.067291	-0.19699	0.23361	0.036011	0.11459	0.066681	-0.61951	-0.018463	-0.019531	-0.003967	0.07019	-0.002747	-0.42511	-0.14023	-0.001068	-0.03479
51.573	0.003357	-0.17578	-0.027924	-0.001373	0.032806	-0.10651	0.17181	0.011444	0.11871	0.013885	0.000763	0.00885	-0.018158	0.045319	-0.11536	0.005035	-0.004883	-0.18066	0.29053	-0.041351	0.086517	-0.004578	-0.55756	-0.01358	-0.011902	-0.064697	-0.028076	0.007629	0	-0.04425	-0.000763	-0.021057
51.574	0.006561	-0.11276	0.13153	-0.006104	-0.042114	0.16708	0.12909	0.021667	0.17624	0.00824	-0.0177	0.009003	-0.024872	0.036011	-0.00473	0.022888	0.077667	-0.14999	0.23941	-0.06424	0.18127	0.005951	-0.53238	0.013733	-0.037079	-0.10681	-0.061951	0.005035	0.22232	-0.018921	-0.001526	-0.034637
51.575	0.009308	-0.090637	0.078888	-0.00351	-0.031738	0.5513	0.083466	0.024261	0.17899	-0.012207	-0.051727	0.018158	-0.017395	-0.024261	0.016937	0.025024	0.1236	-0.23193	0.19486	-0.089417	0.22278	0.07019	-0.54871	0.041504	-0.035706	-0.11429	-0.084686	-0.026398	0.40024	-0.043488	-0.002899	-0.029297
51.576	-0.016022	-0.027771	0.1442	-0.009613	0.048981	0.8046	-0.091095	0.028076	0.11795	0.004883	-0.070801	0.017242	-0.027466	-0.085907	0.11078	0.023499	0.16541	-0.24246	0.14481	-0.095367	0.24002	0.12054	-0.55008	0.054169	-0.029144	-0.013885	-0.052948	-0.16815	0.45075	0.18021	0.000305	-0.040894
51.577	-0.041199	-0.000458	0.030518	-0.01709	0.032043	0.58853	0.010376	0.000916	0.087128	-0.003967	-0.068512	0.028229	-0.018463	-0.068359	0.20813	0.018616	0.15533	-0.29953	0.10757	-0.070801	0.22034	-0.023499	-0.58365	-0.00412	-0.035706	0.01358	0.037079	-0.27252	0.28488	0.30853	-0.006561	-0.038147
51.578	-0.020294	0.032196	-0.19134	0.001526	0.049286	0.39078	0.13702	0.01297	-0.022736	-0.007172	0.11139	0.033875	0.022278	-0.047302	0.14618	0.014954	0.16907	-0.32516	0.10819	-0.013123	0.177	-0.032349	-0.55313	-0.054779	-0.03067	-0.019684	0.076904	0.18143	0.11047	0.20721	0.001831	-0.0383
51.579	0.000153	-0.033417	-0.35461	-0.014801	0.047607	0.55908	0.20447	0.03479	-0.038605	-0.015717	0.15335	0.028992	0.11658	-0.075378	0.020142	-0.00412	0.11261	-0.32028	0.036163	0.1001	0.086975	-0.063477	-0.52155	-0.034027	-0.069122	-0.016785	0.1088	0.10605	0.14862	0.25909	0.002441	-0.038605
